<svg width="97" height="50" viewBox="0 0 97 50" fill="none" xmlns="http://www.w3.org/2000/svg">
<g clip-path="url(#clip0)" filter="url(#filter0_d)">
<path opacity="0.98" d="M28.4328 31.1828L37.6074 14.5417C38.9265 12.1491 38.0559 9.14035 35.6628 7.82152C33.2697 6.50269 30.2604 7.37316 28.9413 9.76577L19.7667 26.4069C18.4476 28.7995 19.3183 31.8082 21.7113 33.127C24.1044 34.4459 27.1137 33.5754 28.4328 31.1828Z" stroke="white" stroke-width="2.38679" stroke-linejoin="round"/>
<path opacity="0.98" d="M29.0342 14.5414L38.2088 31.1825C39.5279 33.5751 42.5372 34.4456 44.9303 33.1267L44.9303 33.1267C47.3233 31.8079 48.194 28.7992 46.8749 26.4066L37.7003 9.76546C36.3812 7.37286 33.3719 6.50239 30.9788 7.82122L30.9788 7.82122C28.5857 9.14005 27.7151 12.1488 29.0342 14.5414Z" stroke="white" stroke-width="2.38679" stroke-linejoin="round"/>
<path opacity="0.98" d="M79.291 31.1828L88.4656 14.5417C89.7847 12.1491 88.914 9.14035 86.5209 7.82152C84.1279 6.50269 81.1186 7.37316 79.7995 9.76577L70.6249 26.4069C69.3058 28.7995 70.1764 31.8082 72.5695 33.127C74.9626 34.4459 77.9719 33.5754 79.291 31.1828Z" stroke="white" stroke-width="2.38679" stroke-linejoin="round"/>
<path opacity="0.98" d="M69.1401 14.5417L59.9655 31.1828C58.6464 33.5754 55.6371 34.4459 53.2441 33.127L53.2441 33.127C50.851 31.8082 49.9803 28.7995 51.2994 26.4069L60.474 9.76577C61.7931 7.37316 64.8024 6.50269 67.1955 7.82152L67.1955 7.82152C69.5886 9.14035 70.4592 12.1491 69.1401 14.5417Z" stroke="white" stroke-width="2.38679" stroke-linejoin="round"/>
<path opacity="0.98" d="M50.6382 31.1825L41.4636 14.5414C40.1445 12.1488 41.0152 9.14005 43.4083 7.82122C45.8013 6.50239 48.8106 7.37286 50.1297 9.76546L59.3043 26.4066C60.6234 28.7992 59.7528 31.8079 57.3597 33.1267C54.9666 34.4456 51.9573 33.5751 50.6382 31.1825Z" stroke="white" stroke-width="2.38679" stroke-linejoin="round"/>
<path opacity="0.98" d="M61.2329 14.5414L70.4075 31.1825C71.7266 33.5751 74.7359 34.4456 77.129 33.1267L77.129 33.1267C79.5221 31.8079 80.3927 28.7992 79.0736 26.4066L69.899 9.76546C68.5799 7.37285 65.5706 6.50239 63.1775 7.82122L63.1775 7.82122C60.7845 9.14005 59.9138 12.1488 61.2329 14.5414Z" stroke="white" stroke-width="2.38679" stroke-linejoin="round"/>
</g>
<g clip-path="url(#clip1)" filter="url(#filter1_d)">
<path opacity="0.98" d="M16.8911 40.6397L25.9783 24.1571C27.2848 21.7873 26.4225 18.8072 24.0522 17.5009C21.6819 16.1947 18.7013 17.0569 17.3947 19.4267L8.30752 35.9093C7.00099 38.2791 7.86334 41.2592 10.2336 42.5655C12.6039 43.8717 15.5846 43.0096 16.8911 40.6397Z" fill="white" stroke="#0074FE" stroke-width="2.36406" stroke-linejoin="round"/>
<path opacity="0.98" d="M26.5737 40.6394L17.4865 24.1568C16.18 21.787 17.0423 18.8069 19.4126 17.5006C21.7829 16.1944 24.7636 17.0565 26.0701 19.4264L35.1573 35.909C36.4639 38.2788 35.6015 41.2589 33.2312 42.5651C30.8609 43.8714 27.8803 43.0092 26.5737 40.6394Z" fill="white" stroke="#0074FE" stroke-width="2.36406" stroke-linejoin="round"/>
<path opacity="0.98" d="M67.2646 40.6397L76.3518 24.1571C77.6584 21.7873 76.796 18.8072 74.4257 17.5009C72.0554 16.1947 69.0748 17.0569 67.7683 19.4267L58.6811 35.9093C57.3745 38.2791 58.2369 41.2592 60.6072 42.5655C62.9775 43.8717 65.9581 43.0095 67.2646 40.6397Z" fill="white" stroke="#0074FE" stroke-width="2.36406" stroke-linejoin="round"/>
<path opacity="0.98" d="M48.123 40.6397L57.2102 24.1571C58.5168 21.7873 57.6544 18.8072 55.2841 17.5009L55.2841 17.5009C52.9138 16.1947 49.9332 17.0569 48.6267 19.4267L39.5394 35.9093C38.2329 38.2791 39.0953 41.2592 41.4656 42.5655C43.8359 43.8717 46.8165 43.0096 48.123 40.6397Z" fill="white" stroke="#0074FE" stroke-width="2.36406" stroke-linejoin="round"/>
<path opacity="0.98" d="M38.8848 40.6394L29.7976 24.1568C28.491 21.787 29.3534 18.8069 31.7237 17.5006C34.094 16.1944 37.0746 17.0565 38.3811 19.4264L47.4684 35.909C48.7749 38.2788 47.9125 41.2589 45.5422 42.5651C43.172 43.8714 40.1913 43.0092 38.8848 40.6394Z" fill="white" stroke="#0074FE" stroke-width="2.36406" stroke-linejoin="round"/>
<path opacity="0.98" d="M58.4661 40.6394L49.3789 24.1568C48.0723 21.787 48.9347 18.8069 51.305 17.5006C53.6753 16.1944 56.6559 17.0565 57.9624 19.4264L67.0497 35.909C68.3562 38.2788 67.4938 41.2589 65.1236 42.5652C62.7533 43.8714 59.7726 43.0092 58.4661 40.6394Z" fill="white" stroke="#0074FE" stroke-width="2.36406" stroke-linejoin="round"/>
</g>
<defs>
<filter id="filter0_d" x="9.82152" y="0" width="88.4623" height="43.7489" filterUnits="userSpaceOnUse" color-interpolation-filters="sRGB">
<feFlood flood-opacity="0" result="BackgroundImageFix"/>
<feColorMatrix in="SourceAlpha" type="matrix" values="0 0 0 0 0 0 0 0 0 0 0 0 0 0 0 0 0 0 127 0" result="hardAlpha"/>
<feOffset dy="1.55788"/>
<feGaussianBlur stdDeviation="0.778938"/>
<feColorMatrix type="matrix" values="0 0 0 0 0 0 0 0 0 0 0 0 0 0 0 0 0 0 0.25 0"/>
<feBlend mode="normal" in2="BackgroundImageFix" result="effect1_dropShadow"/>
<feBlend mode="normal" in="SourceGraphic" in2="effect1_dropShadow" result="shape"/>
</filter>
<filter id="filter1_d" x="-1.54304" y="9.75391" width="87.6198" height="43.3322" filterUnits="userSpaceOnUse" color-interpolation-filters="sRGB">
<feFlood flood-opacity="0" result="BackgroundImageFix"/>
<feColorMatrix in="SourceAlpha" type="matrix" values="0 0 0 0 0 0 0 0 0 0 0 0 0 0 0 0 0 0 127 0" result="hardAlpha"/>
<feOffset dy="1.54304"/>
<feGaussianBlur stdDeviation="0.77152"/>
<feColorMatrix type="matrix" values="0 0 0 0 0 0 0 0 0 0 0 0 0 0 0 0 0 0 0.25 0"/>
<feBlend mode="normal" in2="BackgroundImageFix" result="effect1_dropShadow"/>
<feBlend mode="normal" in="SourceGraphic" in2="effect1_dropShadow" result="shape"/>
</filter>
<clipPath id="clip0">
<rect width="85.3465" height="40.6331" fill="white" transform="translate(11.3794)"/>
</clipPath>
<clipPath id="clip1">
<rect width="84.5337" height="40.2461" fill="white" transform="translate(0 9.75391)"/>
</clipPath>
</defs>
</svg>
