<svg width="115" height="49" viewBox="0 0 115 49" fill="none" xmlns="http://www.w3.org/2000/svg">
<path opacity="0.98" d="M17.3019 41.1644L31.6614 14.5609C33.726 10.736 32.3633 5.9261 28.6178 3.81774L28.6178 3.81774C24.8723 1.70939 20.1623 3.10097 18.0977 6.92592L3.73813 33.5294C1.67356 37.3543 3.03624 42.1642 6.78176 44.2726C10.5273 46.3809 15.2373 44.9893 17.3019 41.1644Z" fill="#0073FF" stroke="white" stroke-opacity="0.984314" stroke-width="1.95122" stroke-linejoin="round"/>
<path opacity="0.98" d="M32.6024 41.1642L18.2429 14.5605C16.1783 10.7355 17.541 5.92559 21.2865 3.81722C25.032 1.70884 29.742 3.10043 31.8066 6.92542L46.1662 33.5291C48.2307 37.3541 46.8681 42.1641 43.1225 44.2724C39.377 46.3808 34.667 44.9892 32.6024 41.1642Z" fill="#0576FF" stroke="white" stroke-opacity="0.984314" stroke-width="1.95122" stroke-linejoin="round"/>
<path opacity="0.98" d="M96.9022 41.1649L111.262 14.5614C113.326 10.7365 111.964 5.92659 108.218 3.81823L108.218 3.81823C104.473 1.70988 99.7626 3.10146 97.698 6.92641L83.3385 33.5299C81.2739 37.3548 82.6366 42.1647 86.3821 44.2731C90.1276 46.3814 94.8376 44.9898 96.9022 41.1649Z" fill="#0073FF" fill-opacity="0.980392" stroke="white" stroke-opacity="0.984314" stroke-width="1.95122" stroke-linejoin="round"/>
<path opacity="0.98" d="M66.6551 41.1644L81.0147 14.5609C83.0793 10.736 81.7166 5.92609 77.9711 3.81774C74.2255 1.70939 69.5155 3.10097 67.451 6.92592L53.0914 33.5294C51.0268 37.3543 52.3895 42.1642 56.135 44.2726C59.8806 46.3809 64.5906 44.9893 66.6551 41.1644Z" fill="#0073FF" fill-opacity="0.980392" stroke="white" stroke-opacity="0.984314" stroke-width="1.95122" stroke-linejoin="round"/>
<path opacity="0.98" d="M52.0563 41.1642L37.6967 14.5605C35.6322 10.7355 36.9948 5.92559 40.7404 3.81722C44.4859 1.70884 49.1959 3.10043 51.2605 6.92542L65.62 33.5291C67.6846 37.3541 66.3219 42.1641 62.5764 44.2724C58.8309 46.3808 54.1209 44.9892 52.0563 41.1642Z" fill="#0576FF" stroke="white" stroke-opacity="0.984314" stroke-width="1.95122" stroke-linejoin="round"/>
<path opacity="0.98" d="M82.9987 41.1642L68.6391 14.5605C66.5745 10.7355 67.9372 5.92559 71.6827 3.81722L71.6827 3.81721C75.4283 1.70884 80.1383 3.10044 82.2028 6.92543L96.5624 33.5291C98.627 37.3541 97.2643 42.1641 93.5188 44.2725C89.7733 46.3808 85.0633 44.9892 82.9987 41.1642Z" fill="#0576FF" fill-opacity="0.980392" stroke="white" stroke-opacity="0.984314" stroke-width="1.95122" stroke-linejoin="round"/>
</svg>
