<svg width="280" height="72" viewBox="0 0 280 72" fill="none" xmlns="http://www.w3.org/2000/svg">
<path d="M37.0607 14.7278L30.4727 39.9998H23.0207L18.9887 23.3678L14.8127 39.9998H7.36073L0.952734 14.7278H7.54073L11.1767 33.1238L15.6767 14.7278H22.4447L26.7647 33.1238L30.4367 14.7278H37.0607ZM59.084 29.6318C59.084 30.2078 59.048 30.8078 58.976 31.4318H45.044C45.14 32.6798 45.536 33.6398 46.232 34.3118C46.952 34.9598 47.828 35.2838 48.86 35.2838C50.396 35.2838 51.464 34.6358 52.064 33.3398H58.616C58.28 34.6598 57.668 35.8478 56.78 36.9038C55.916 37.9598 54.824 38.7878 53.504 39.3878C52.184 39.9878 50.708 40.2878 49.076 40.2878C47.108 40.2878 45.356 39.8678 43.82 39.0278C42.284 38.1878 41.084 36.9878 40.22 35.4278C39.356 33.8678 38.924 32.0438 38.924 29.9558C38.924 27.8678 39.344 26.0438 40.184 24.4838C41.048 22.9238 42.248 21.7238 43.784 20.8838C45.32 20.0438 47.084 19.6238 49.076 19.6238C51.02 19.6238 52.748 20.0318 54.26 20.8478C55.772 21.6638 56.948 22.8278 57.788 24.3398C58.652 25.8518 59.084 27.6158 59.084 29.6318ZM52.784 28.0118C52.784 26.9558 52.424 26.1158 51.704 25.4918C50.984 24.8678 50.084 24.5558 49.004 24.5558C47.972 24.5558 47.096 24.8558 46.376 25.4558C45.68 26.0558 45.248 26.9078 45.08 28.0118H52.784ZM63.7356 14.7278H70.0356L66.0036 24.3758H61.8636L63.7356 14.7278ZM79.8079 23.2598C80.5279 22.1558 81.4279 21.2918 82.5079 20.6678C83.5879 20.0198 84.7879 19.6958 86.1079 19.6958V26.2118H84.4159C82.8799 26.2118 81.7279 26.5478 80.9599 27.2198C80.1919 27.8678 79.8079 29.0198 79.8079 30.6758V39.9998H73.6519V19.9118H79.8079V23.2598ZM107.986 29.6318C107.986 30.2078 107.95 30.8078 107.878 31.4318H93.9464C94.0424 32.6798 94.4384 33.6398 95.1344 34.3118C95.8544 34.9598 96.7304 35.2838 97.7624 35.2838C99.2984 35.2838 100.366 34.6358 100.966 33.3398H107.518C107.182 34.6598 106.57 35.8478 105.682 36.9038C104.818 37.9598 103.726 38.7878 102.406 39.3878C101.086 39.9878 99.6104 40.2878 97.9784 40.2878C96.0104 40.2878 94.2584 39.8678 92.7224 39.0278C91.1864 38.1878 89.9864 36.9878 89.1224 35.4278C88.2584 33.8678 87.8264 32.0438 87.8264 29.9558C87.8264 27.8678 88.2464 26.0438 89.0864 24.4838C89.9504 22.9238 91.1504 21.7238 92.6864 20.8838C94.2224 20.0438 95.9864 19.6238 97.9784 19.6238C99.9224 19.6238 101.65 20.0318 103.162 20.8478C104.674 21.6638 105.85 22.8278 106.69 24.3398C107.554 25.8518 107.986 27.6158 107.986 29.6318ZM101.686 28.0118C101.686 26.9558 101.326 26.1158 100.606 25.4918C99.8864 24.8678 98.9864 24.5558 97.9064 24.5558C96.8744 24.5558 95.9984 24.8558 95.2784 25.4558C94.5824 26.0558 94.1504 26.9078 93.9824 28.0118H101.686ZM134.595 35.5358H125.163L123.651 39.9998H117.207L126.351 14.7278H133.479L142.623 39.9998H136.107L134.595 35.5358ZM133.011 30.7838L129.879 21.5318L126.783 30.7838H133.011ZM144.182 29.9198C144.182 27.8558 144.566 26.0438 145.334 24.4838C146.126 22.9238 147.194 21.7238 148.538 20.8838C149.882 20.0438 151.382 19.6238 153.038 19.6238C154.358 19.6238 155.558 19.8998 156.638 20.4518C157.742 21.0038 158.606 21.7478 159.23 22.6838V13.3598H165.386V39.9998H159.23V37.1198C158.654 38.0798 157.826 38.8478 156.746 39.4238C155.69 39.9998 154.454 40.2878 153.038 40.2878C151.382 40.2878 149.882 39.8678 148.538 39.0278C147.194 38.1638 146.126 36.9518 145.334 35.3918C144.566 33.8078 144.182 31.9838 144.182 29.9198ZM159.23 29.9558C159.23 28.4198 158.798 27.2078 157.934 26.3198C157.094 25.4318 156.062 24.9878 154.838 24.9878C153.614 24.9878 152.57 25.4318 151.706 26.3198C150.866 27.1838 150.446 28.3838 150.446 29.9198C150.446 31.4558 150.866 32.6798 151.706 33.5918C152.57 34.4798 153.614 34.9238 154.838 34.9238C156.062 34.9238 157.094 34.4798 157.934 33.5918C158.798 32.7038 159.23 31.4918 159.23 29.9558ZM178.983 40.2878C177.015 40.2878 175.239 39.8678 173.655 39.0278C172.095 38.1878 170.859 36.9878 169.947 35.4278C169.059 33.8678 168.615 32.0438 168.615 29.9558C168.615 27.8918 169.071 26.0798 169.983 24.5198C170.895 22.9358 172.143 21.7238 173.727 20.8838C175.311 20.0438 177.087 19.6238 179.055 19.6238C181.023 19.6238 182.799 20.0438 184.383 20.8838C185.967 21.7238 187.215 22.9358 188.127 24.5198C189.039 26.0798 189.495 27.8918 189.495 29.9558C189.495 32.0198 189.027 33.8438 188.091 35.4278C187.179 36.9878 185.919 38.1878 184.311 39.0278C182.727 39.8678 180.951 40.2878 178.983 40.2878ZM178.983 34.9598C180.159 34.9598 181.155 34.5278 181.971 33.6638C182.811 32.7998 183.231 31.5638 183.231 29.9558C183.231 28.3478 182.823 27.1118 182.007 26.2478C181.215 25.3838 180.231 24.9518 179.055 24.9518C177.855 24.9518 176.859 25.3838 176.067 26.2478C175.275 27.0878 174.879 28.3238 174.879 29.9558C174.879 31.5638 175.263 32.7998 176.031 33.6638C176.823 34.5278 177.807 34.9598 178.983 34.9598ZM198.917 13.3598V39.9998H192.761V13.3598H198.917ZM232.214 19.9118L226.778 39.9998H219.974L216.806 26.9678L213.53 39.9998H206.762L201.29 19.9118H207.446L210.29 34.2758L213.674 19.9118H220.19L223.61 34.2038L226.418 19.9118H232.214ZM253.498 29.6318C253.498 30.2078 253.462 30.8078 253.39 31.4318H239.458C239.554 32.6798 239.95 33.6398 240.646 34.3118C241.366 34.9598 242.242 35.2838 243.274 35.2838C244.81 35.2838 245.878 34.6358 246.478 33.3398H253.03C252.694 34.6598 252.082 35.8478 251.194 36.9038C250.33 37.9598 249.238 38.7878 247.918 39.3878C246.598 39.9878 245.122 40.2878 243.49 40.2878C241.522 40.2878 239.77 39.8678 238.234 39.0278C236.698 38.1878 235.498 36.9878 234.634 35.4278C233.77 33.8678 233.338 32.0438 233.338 29.9558C233.338 27.8678 233.758 26.0438 234.598 24.4838C235.462 22.9238 236.662 21.7238 238.198 20.8838C239.734 20.0438 241.498 19.6238 243.49 19.6238C245.434 19.6238 247.162 20.0318 248.674 20.8478C250.186 21.6638 251.362 22.8278 252.202 24.3398C253.066 25.8518 253.498 27.6158 253.498 29.6318ZM247.198 28.0118C247.198 26.9558 246.838 26.1158 246.118 25.4918C245.398 24.8678 244.498 24.5558 243.418 24.5558C242.386 24.5558 241.51 24.8558 240.79 25.4558C240.094 26.0558 239.662 26.9078 239.494 28.0118H247.198ZM262.902 22.7558C263.478 21.8198 264.306 21.0638 265.386 20.4878C266.466 19.9118 267.702 19.6238 269.094 19.6238C270.75 19.6238 272.25 20.0438 273.594 20.8838C274.938 21.7238 275.994 22.9238 276.762 24.4838C277.554 26.0438 277.95 27.8558 277.95 29.9198C277.95 31.9838 277.554 33.8078 276.762 35.3918C275.994 36.9518 274.938 38.1638 273.594 39.0278C272.25 39.8678 270.75 40.2878 269.094 40.2878C267.678 40.2878 266.442 40.0118 265.386 39.4598C264.33 38.8838 263.502 38.1278 262.902 37.1918V39.9998H256.746V13.3598H262.902V22.7558ZM271.686 29.9198C271.686 28.3838 271.254 27.1838 270.39 26.3198C269.55 25.4318 268.506 24.9878 267.258 24.9878C266.034 24.9878 264.99 25.4318 264.126 26.3198C263.286 27.2078 262.866 28.4198 262.866 29.9558C262.866 31.4918 263.286 32.7038 264.126 33.5918C264.99 34.4798 266.034 34.9238 267.258 34.9238C268.482 34.9238 269.526 34.4798 270.39 33.5918C271.254 32.6798 271.686 31.4558 271.686 29.9198Z" fill="#0074FE"/>
<path d="M46.6439 32.9078L39.3719 57.9998H35.6999L29.8679 37.8038L23.8199 57.9998L20.1839 58.0358L13.1639 32.9078H16.6559L22.1279 54.1838L28.1759 32.9078H31.8479L37.6079 54.1118L43.1159 32.9078H46.6439ZM68.229 47.3798C68.229 48.0038 68.193 48.6638 68.121 49.3598H52.353C52.473 51.3038 53.133 52.8278 54.333 53.9318C55.557 55.0118 57.033 55.5518 58.761 55.5518C60.177 55.5518 61.353 55.2278 62.289 54.5798C63.249 53.9078 63.921 53.0198 64.305 51.9158H67.833C67.305 53.8118 66.249 55.3598 64.665 56.5598C63.081 57.7358 61.113 58.3238 58.761 58.3238C56.889 58.3238 55.209 57.9038 53.721 57.0638C52.257 56.2238 51.105 55.0358 50.265 53.4998C49.425 51.9398 49.005 50.1398 49.005 48.0998C49.005 46.0598 49.413 44.2718 50.229 42.7358C51.045 41.1998 52.185 40.0238 53.649 39.2078C55.137 38.3678 56.841 37.9478 58.761 37.9478C60.633 37.9478 62.289 38.3558 63.729 39.1718C65.169 39.9878 66.273 41.1158 67.041 42.5558C67.833 43.9718 68.229 45.5798 68.229 47.3798ZM64.845 46.6958C64.845 45.4478 64.569 44.3798 64.017 43.4918C63.465 42.5798 62.709 41.8958 61.749 41.4398C60.813 40.9598 59.769 40.7198 58.617 40.7198C56.961 40.7198 55.545 41.2478 54.369 42.3038C53.217 43.3598 52.557 44.8238 52.389 46.6958H64.845ZM73.0573 32.9078H76.6933L73.2373 41.0798H70.9333L73.0573 32.9078ZM83.7043 41.4758C84.2803 40.3478 85.0963 39.4718 86.1523 38.8478C87.2323 38.2238 88.5403 37.9118 90.0763 37.9118V41.2958H89.2123C85.5403 41.2958 83.7043 43.2878 83.7043 47.2718V57.9998H80.4283V38.2718H83.7043V41.4758ZM111.858 47.3798C111.858 48.0038 111.822 48.6638 111.75 49.3598H95.9819C96.1019 51.3038 96.7619 52.8278 97.9619 53.9318C99.1859 55.0118 100.662 55.5518 102.39 55.5518C103.806 55.5518 104.982 55.2278 105.918 54.5798C106.878 53.9078 107.55 53.0198 107.934 51.9158H111.462C110.934 53.8118 109.878 55.3598 108.294 56.5598C106.71 57.7358 104.742 58.3238 102.39 58.3238C100.518 58.3238 98.8379 57.9038 97.3499 57.0638C95.8859 56.2238 94.7339 55.0358 93.8939 53.4998C93.0539 51.9398 92.6339 50.1398 92.6339 48.0998C92.6339 46.0598 93.0419 44.2718 93.8579 42.7358C94.6739 41.1998 95.8139 40.0238 97.2779 39.2078C98.7659 38.3678 100.47 37.9478 102.39 37.9478C104.262 37.9478 105.918 38.3558 107.358 39.1718C108.798 39.9878 109.902 41.1158 110.67 42.5558C111.462 43.9718 111.858 45.5798 111.858 47.3798ZM108.474 46.6958C108.474 45.4478 108.198 44.3798 107.646 43.4918C107.094 42.5798 106.338 41.8958 105.378 41.4398C104.442 40.9598 103.398 40.7198 102.246 40.7198C100.59 40.7198 99.1739 41.2478 97.9979 42.3038C96.8459 43.3598 96.1859 44.8238 96.0179 46.6958H108.474ZM140.612 52.4198H129.668L127.652 57.9998H124.196L133.268 33.0518H137.048L146.084 57.9998H142.628L140.612 52.4198ZM139.676 49.7558L135.14 37.0838L130.604 49.7558H139.676ZM148.814 48.0638C148.814 46.0478 149.222 44.2838 150.038 42.7718C150.854 41.2358 151.97 40.0478 153.386 39.2078C154.826 38.3678 156.434 37.9478 158.21 37.9478C159.746 37.9478 161.174 38.3078 162.494 39.0278C163.814 39.7238 164.822 40.6478 165.518 41.7998V31.3598H168.83V57.9998H165.518V54.2918C164.87 55.4678 163.91 56.4398 162.638 57.2078C161.366 57.9518 159.878 58.3238 158.174 58.3238C156.422 58.3238 154.826 57.8918 153.386 57.0278C151.97 56.1638 150.854 54.9518 150.038 53.3918C149.222 51.8318 148.814 50.0558 148.814 48.0638ZM165.518 48.0998C165.518 46.6118 165.218 45.3158 164.618 44.2118C164.018 43.1078 163.202 42.2678 162.17 41.6918C161.162 41.0918 160.046 40.7918 158.822 40.7918C157.598 40.7918 156.482 41.0798 155.474 41.6558C154.466 42.2318 153.662 43.0718 153.062 44.1758C152.462 45.2798 152.162 46.5758 152.162 48.0638C152.162 49.5758 152.462 50.8958 153.062 52.0238C153.662 53.1278 154.466 53.9798 155.474 54.5798C156.482 55.1558 157.598 55.4438 158.822 55.4438C160.046 55.4438 161.162 55.1558 162.17 54.5798C163.202 53.9798 164.018 53.1278 164.618 52.0238C165.218 50.8958 165.518 49.5878 165.518 48.0998ZM182.97 58.3238C181.122 58.3238 179.442 57.9038 177.93 57.0638C176.442 56.2238 175.266 55.0358 174.402 53.4998C173.562 51.9398 173.142 50.1398 173.142 48.0998C173.142 46.0838 173.574 44.3078 174.438 42.7718C175.326 41.2118 176.526 40.0238 178.038 39.2078C179.55 38.3678 181.242 37.9478 183.114 37.9478C184.986 37.9478 186.678 38.3678 188.19 39.2078C189.702 40.0238 190.89 41.1998 191.754 42.7358C192.642 44.2718 193.086 46.0598 193.086 48.0998C193.086 50.1398 192.63 51.9398 191.718 53.4998C190.83 55.0358 189.618 56.2238 188.082 57.0638C186.546 57.9038 184.842 58.3238 182.97 58.3238ZM182.97 55.4438C184.146 55.4438 185.25 55.1678 186.282 54.6158C187.314 54.0638 188.142 53.2358 188.766 52.1318C189.414 51.0278 189.738 49.6838 189.738 48.0998C189.738 46.5158 189.426 45.1718 188.802 44.0678C188.178 42.9638 187.362 42.1478 186.354 41.6198C185.346 41.0678 184.254 40.7918 183.078 40.7918C181.878 40.7918 180.774 41.0678 179.766 41.6198C178.782 42.1478 177.99 42.9638 177.39 44.0678C176.79 45.1718 176.49 46.5158 176.49 48.0998C176.49 49.7078 176.778 51.0638 177.354 52.1678C177.954 53.2718 178.746 54.0998 179.73 54.6518C180.714 55.1798 181.794 55.4438 182.97 55.4438ZM200.669 31.3598V57.9998H197.393V31.3598H200.669ZM232.532 38.2718L226.376 57.9998H222.992L218.24 42.3398L213.488 57.9998H210.104L203.912 38.2718H207.26L211.796 54.8318L216.692 38.2718H220.04L224.828 54.8678L229.292 38.2718H232.532ZM253.784 47.3798C253.784 48.0038 253.748 48.6638 253.676 49.3598H237.908C238.028 51.3038 238.688 52.8278 239.888 53.9318C241.112 55.0118 242.588 55.5518 244.316 55.5518C245.732 55.5518 246.908 55.2278 247.844 54.5798C248.804 53.9078 249.476 53.0198 249.86 51.9158H253.388C252.86 53.8118 251.804 55.3598 250.22 56.5598C248.636 57.7358 246.668 58.3238 244.316 58.3238C242.444 58.3238 240.764 57.9038 239.276 57.0638C237.812 56.2238 236.66 55.0358 235.82 53.4998C234.98 51.9398 234.56 50.1398 234.56 48.0998C234.56 46.0598 234.968 44.2718 235.784 42.7358C236.6 41.1998 237.74 40.0238 239.204 39.2078C240.692 38.3678 242.396 37.9478 244.316 37.9478C246.188 37.9478 247.844 38.3558 249.284 39.1718C250.724 39.9878 251.828 41.1158 252.596 42.5558C253.388 43.9718 253.784 45.5798 253.784 47.3798ZM250.4 46.6958C250.4 45.4478 250.124 44.3798 249.572 43.4918C249.02 42.5798 248.264 41.8958 247.304 41.4398C246.368 40.9598 245.324 40.7198 244.172 40.7198C242.516 40.7198 241.1 41.2478 239.924 42.3038C238.772 43.3598 238.112 44.8238 237.944 46.6958H250.4ZM261.384 41.9438C262.056 40.7678 263.04 39.8078 264.336 39.0638C265.632 38.3198 267.108 37.9478 268.764 37.9478C270.54 37.9478 272.136 38.3678 273.552 39.2078C274.968 40.0478 276.084 41.2358 276.9 42.7718C277.716 44.2838 278.124 46.0478 278.124 48.0638C278.124 50.0558 277.716 51.8318 276.9 53.3918C276.084 54.9518 274.956 56.1638 273.516 57.0278C272.1 57.8918 270.516 58.3238 268.764 58.3238C267.06 58.3238 265.56 57.9518 264.264 57.2078C262.992 56.4638 262.032 55.5158 261.384 54.3638V57.9998H258.108V31.3598H261.384V41.9438ZM274.776 48.0638C274.776 46.5758 274.476 45.2798 273.876 44.1758C273.276 43.0718 272.46 42.2318 271.428 41.6558C270.42 41.0798 269.304 40.7918 268.08 40.7918C266.88 40.7918 265.764 41.0918 264.732 41.6918C263.724 42.2678 262.908 43.1198 262.284 44.2478C261.684 45.3518 261.384 46.6358 261.384 48.0998C261.384 49.5878 261.684 50.8958 262.284 52.0238C262.908 53.1278 263.724 53.9798 264.732 54.5798C265.764 55.1558 266.88 55.4438 268.08 55.4438C269.304 55.4438 270.42 55.1558 271.428 54.5798C272.46 53.9798 273.276 53.1278 273.876 52.0238C274.476 50.8958 274.776 49.5758 274.776 48.0638Z" fill="#0074FE"/>
</svg>
